<?xml version="1.0" encoding="UTF-8"?>
<svg xmlns="http://www.w3.org/2000/svg" width="1024" height="1024" viewBox="0 0 1024 1024">
  <rect width="1024" height="1024" fill="#080808"/>
  <g fill="none" stroke="#fff" stroke-width="68" stroke-linecap="round" stroke-linejoin="round">
    <path d="M325 310H169a48 48 0 0 0-48 48v95a48 48 0 0 0 48 48h108a48 48 0 0 1 48 48v117a48 48 0 0 1-48 48H121"/>
    <path d="M422 714V310h91a111 111 0 0 1 111 111v182a111 111 0 0 1-111 111Z"/>
    <path d="M903 310H747a48 48 0 0 0-48 48v95a48 48 0 0 0 48 48h108a48 48 0 0 1 48 48v117a48 48 0 0 1-48 48H699"/>
  </g>
</svg>
